<svg version="1.1" xmlns="http://www.w3.org/2000/svg" style="display: block;" viewBox="0 0 2048 2048" width="1024" height="1024">
<defs>
	<linearGradient id="Gradient1" gradientUnits="userSpaceOnUse" x1="1424.67" y1="1635.92" x2="1362.43" y2="1646.97">
		<stop class="stop0" offset="0" stop-opacity="1" stop-color="rgb(0,0,0)"/>
		<stop class="stop1" offset="1" stop-opacity="1" stop-color="rgb(4,20,36)"/>
	</linearGradient>
	<linearGradient id="Gradient2" gradientUnits="userSpaceOnUse" x1="1177.8" y1="1661.1" x2="1245.05" y2="1611.36">
		<stop class="stop0" offset="0" stop-opacity="1" stop-color="rgb(1,1,3)"/>
		<stop class="stop1" offset="1" stop-opacity="1" stop-color="rgb(7,21,33)"/>
	</linearGradient>
</defs>
<path transform="translate(0,0)" fill="rgb(254,254,254)" d="M 0 0 L 2048 0 L 2048 2048 L 0 2048 L 0 0 z"/>
<path transform="translate(0,0)" fill="rgb(53,108,144)" d="M 1024.06 74.0824 C 1031.75 75.5181 1039.78 79.1051 1047.23 81.5993 L 1093.64 96.993 L 1249.33 147.62 L 1861.53 346.651 C 1863.41 364.717 1867.53 382.939 1870.24 400.943 A 1590.71 1590.71 0 0 1 1739.53 1306.29 C 1704.2 1383.6 1663.92 1460.18 1613.39 1528.73 C 1627.53 1555.07 1636.43 1581.84 1636.52 1612.02 A 150.963 150.963 0 0 1 1592.07 1718.87 C 1542.71 1768.17 1482.64 1761.21 1418.97 1761.12 C 1300.69 1851.88 1164.02 1922.17 1023.52 1971.83 C 1019.11 1969.45 1014.21 1967.7 1009.59 1965.76 C 991.328 1959.47 973.245 1951.19 955.382 1943.81 A 1675.94 1675.94 0 0 1 707.039 1816.17 C 679.799 1799.04 654.639 1778.86 627.447 1761.81 C 589.287 1761.09 551.03 1762.88 512.878 1761.8 C 472.653 1760.67 435.751 1745.82 408.033 1716.12 A 146.854 146.854 0 0 1 368.993 1610.34 C 370.447 1570.15 387.002 1533.9 416.339 1506.48 C 406.058 1488.19 394.748 1470.47 384.216 1452.33 C 366.474 1421.77 349.284 1390.23 333.754 1358.48 C 218.77 1123.4 153.413 857.922 161.074 595.501 C 163.523 511.615 174.572 429.651 187.865 346.908 C 203.75 340.148 221.084 335.44 237.495 329.953 A 4961.19 4961.19 0 0 1 336.342 297.641 L 552.993 227.637 L 906.484 113.074 A 5649.66 5649.66 0 0 0 981.11 88.8557 C 995.423 84.0162 1009.55 78.235 1024.06 74.0824 z"/>
<path transform="translate(0,0)" fill="rgb(254,254,254)" d="M 1026.1 1847.11 C 1039.88 1842.15 1053.36 1836.04 1066.89 1830.45 C 1091.11 1820.45 1115.17 1810.45 1138.92 1799.36 C 1155.82 1791.48 1208.16 1763.61 1221.82 1761.09 C 1231.47 1759.31 1242.34 1760.27 1252.17 1760.27 A 2089.81 2089.81 0 0 1 1318.27 1761.08 A 2090.74 2090.74 0 0 1 1280.17 1785 C 1198.78 1834.19 1113 1873.3 1024.54 1907.88 C 1009.08 1902.65 993.875 1895.6 978.767 1889.38 A 1904.8 1904.8 0 0 1 816.125 1812.39 C 807.483 1807.85 735.884 1766.38 733.33 1762.6 C 732.918 1761.99 732.893 1761.19 732.674 1760.49 A 3685.55 3685.55 0 0 0 837.29 1760.94 C 855.749 1773.08 876.95 1782.38 896.894 1791.79 A 1708.53 1708.53 0 0 0 1026.1 1847.11 z"/>
<path transform="translate(0,0)" fill="rgb(254,254,254)" d="M 1023.66 135.913 C 1027.85 135.128 1136.93 172.995 1152.29 178.036 L 1602.8 324.027 A 10029 10029 0 0 0 1735.41 367.362 C 1759.45 375.161 1783.41 384.026 1808.02 389.865 C 1819.05 447.212 1824.91 510.291 1827.54 568.764 A 1557.04 1557.04 0 0 1 1677.47 1300.59 A 1876.7 1876.7 0 0 1 1612.54 1425.38 C 1600.55 1446.1 1586.56 1465.86 1575.46 1487.04 C 1559.62 1477.72 1541.99 1471.72 1524 1468.3 C 1563.93 1407.6 1598.05 1341.93 1628.49 1276.04 C 1731.88 1052.22 1788.77 800.389 1772.52 553.308 C 1769.89 513.314 1764.38 473.431 1758.16 433.851 C 1723.09 423.136 1688.35 411.194 1653.42 399.991 L 1385.47 313.153 C 1265.18 273.813 1144.22 235.815 1024.73 194.12 C 971.282 213.474 916.822 230.1 862.867 247.971 L 467.954 376.001 C 409.355 394.861 349.522 411.621 291.663 432.603 C 278.356 496.578 274.995 563.356 274.839 628.547 A 1484.79 1484.79 0 0 0 413.714 1259.88 A 1539.77 1539.77 0 0 0 476.695 1382.21 C 488.379 1402.77 501.538 1422.81 512.362 1443.82 L 538.176 1442.23 A 1495.43 1495.43 0 0 1 296.737 655.5 A 1154.78 1154.78 0 0 1 310.401 449.065 C 340.085 440.955 369.236 430.43 398.53 421.018 L 578.285 363.133 L 831.833 281.134 A 7922.14 7922.14 0 0 0 1025.3 216.922 C 1044.43 222.166 1063.46 230.296 1082.27 236.777 C 1113.58 247.562 1145.25 257.509 1176.69 267.923 L 1538.75 385.364 L 1665.37 426.358 C 1689.78 434.205 1713.88 442.77 1738.72 449.164 C 1797.09 793.982 1682.32 1198.38 1487.8 1484.7 C 1502.61 1486.55 1517.11 1489.84 1530.87 1495.69 C 1563.35 1509.51 1589 1534.5 1601.92 1567.6 C 1613.57 1597.46 1612.6 1633.97 1599.48 1663.18 C 1582.3 1701.43 1549.02 1727.75 1507.52 1734.68 C 1477.2 1739.75 1436.37 1736.82 1405.04 1736.74 L 1272.82 1736.97 C 1256.24 1736.99 1231.07 1734.44 1215.46 1737.93 C 1200.53 1741.28 1172.9 1758.97 1157.62 1766.15 C 1113.99 1786.63 1070.33 1806.56 1025.28 1823.77 C 1011.12 1819.54 996.916 1812.69 983.338 1806.86 A 2446.19 2446.19 0 0 1 884.535 1761.18 C 870.845 1754.49 853.215 1741.49 838.691 1738.85 C 821.422 1735.71 792.039 1737.95 773.337 1737.98 L 595.323 1738.03 C 565.925 1738.06 523.132 1740.7 495.524 1735.58 A 128.318 128.318 0 0 1 441.19 1711.44 C 416.372 1692.67 399.307 1662.52 395.385 1631.67 A 125.07 125.07 0 0 1 420.225 1539.82 C 444.845 1508.01 479.848 1492.89 518.912 1487.74 L 519.046 1462.79 C 500.638 1463.62 484.638 1468.4 467.295 1474.15 C 454.029 1455.49 442.978 1434.91 431.898 1414.9 A 1939.5 1939.5 0 0 1 381.988 1319.51 A 1529.24 1529.24 0 0 1 240.249 390.235 C 294.74 373.785 348.616 355.438 402.802 338.049 A 30415.9 30415.9 0 0 0 742.907 228.121 L 920.349 170.464 C 954.766 159.303 990.02 149.247 1023.66 135.913 z"/>
<path transform="translate(0,0)" fill="rgb(3,6,11)" d="M 674.49 1612.93 C 677.003 1610.44 679.528 1608.14 682.458 1606.15 C 685.559 1604.03 689.012 1601.88 692.899 1602.61 C 694.432 1604.3 694.385 1604.43 694.6 1606.73 C 692.092 1610.73 685.201 1612.19 681.444 1615.31 C 675.398 1620.33 674.933 1626.72 674.327 1634.03 C 674.162 1641.89 675.349 1650.42 674.251 1658.13 C 673.722 1661.85 672.597 1664.15 669.604 1666.4 L 667.662 1665.62 C 663.623 1658.57 666.041 1613.8 666.082 1602.97 C 668.327 1602.98 670.4 1603.13 672.619 1603.47 C 674.841 1606.17 674.315 1609.5 674.49 1612.93 z"/>
<path transform="translate(0,0)" fill="rgb(3,6,11)" d="M 822.009 1610 C 826.263 1605.54 831.96 1602.7 838.19 1602.48 C 843.37 1602.3 848.699 1603.89 852.369 1607.68 C 860.834 1616.41 859.971 1643.63 858.985 1655.8 C 858.703 1659.27 857.601 1663.93 854.758 1666.23 C 854.015 1666.83 853.963 1666.75 853.138 1666.95 C 850.994 1665.35 850.583 1664.17 850.183 1661.51 C 848.285 1648.85 855.262 1620.53 843.689 1612.44 C 839.371 1609.43 834.672 1610.24 829.955 1611.58 A 120.2 120.2 0 0 0 827.44 1612.34 C 825.985 1611.51 825.25 1611.75 823.611 1611.75 L 822.009 1610 z"/>
<path transform="translate(0,0)" fill="rgb(3,6,11)" d="M 1525.13 1601.05 C 1526.57 1600.97 1528.03 1600.89 1529.47 1600.91 C 1532.93 1600.96 1534.67 1601.93 1536.98 1604.4 L 1536.52 1607.01 C 1531.39 1613.71 1525 1607.68 1518.44 1611.8 C 1504.07 1620.83 1512.67 1648.95 1509.22 1663.11 C 1507.06 1665.66 1505.63 1665.15 1502.39 1665.51 C 1499.21 1661.41 1500.87 1611.7 1501.54 1603.5 L 1503.46 1601.94 C 1505.84 1601.5 1505.72 1601.06 1507.93 1602.4 C 1509.65 1605.7 1509.14 1610.1 1509.16 1613.76 C 1514.05 1607.8 1517.93 1604.24 1525.13 1601.05 z"/>
<path transform="translate(0,0)" fill="rgb(3,6,11)" d="M 1270.1 1579.21 C 1273.37 1579.24 1275.69 1578.78 1278.55 1580.45 C 1279.75 1590.16 1279.04 1600.52 1279.04 1610.32 L 1278.94 1665.69 C 1276.05 1665.68 1272.44 1666.2 1270.11 1664.48 C 1269.06 1654.06 1269.75 1643.17 1269.81 1632.7 L 1270.1 1579.21 z"/>
<path transform="translate(0,0)" fill="rgb(3,6,11)" d="M 827.44 1612.34 C 811.244 1625.08 822.872 1648.61 816.712 1666.22 L 813.105 1666.87 C 811.294 1664.06 810.599 1660.36 810.179 1657.09 C 809.101 1648.67 808.923 1583.91 811.613 1580.54 L 811.705 1580.9 L 810.552 1580.88 L 811.028 1579.37 L 814.53 1578.47 C 824.733 1581.65 815.525 1603.29 819.767 1610.81 L 822.009 1610 L 823.611 1611.75 C 825.25 1611.75 825.985 1611.51 827.44 1612.34 z"/>
<path transform="translate(0,0)" fill="rgb(3,6,11)" d="M 774.701 1602.17 C 782.77 1602.48 789.775 1603.03 795.721 1609.03 L 794.666 1613.67 C 789.272 1615.15 780.837 1608.99 774.67 1609.47 C 770.848 1609.76 768.552 1611.45 765.919 1614.05 C 765.454 1615.44 764.946 1616.16 765.327 1617.65 C 767.455 1626.03 780.784 1631.05 787.754 1634.79 C 792.114 1637.14 796.694 1639.27 798.108 1644.35 C 799.195 1648.25 798.962 1651.74 796.882 1655.26 C 793.005 1661.82 787.017 1664.28 779.956 1666 C 775.017 1666.12 770.081 1665.82 765.269 1664.62 C 761.996 1663.81 757.517 1661.78 756.015 1658.59 C 755.341 1657.16 756.081 1656.59 756.677 1655.27 C 757.665 1654.73 758.534 1653.86 759.641 1653.64 C 762.982 1652.98 771.641 1661.21 781.325 1658.33 C 784.828 1657.29 787.871 1654.03 789.463 1650.89 C 788.889 1636.89 763.051 1637 758.349 1622.08 C 757.096 1618.1 757.967 1613.73 760.111 1610.22 C 763.404 1604.83 768.908 1603.45 774.701 1602.17 z"/>
<path transform="translate(0,0)" fill="url(#Gradient1)" d="M 1414.68 1602.4 C 1417.37 1602.48 1420.2 1602.24 1422.62 1603.55 L 1418.55 1614.32 C 1412.76 1629.47 1398.86 1669.24 1389.36 1680.28 C 1386.17 1683.99 1381.85 1685.82 1377.48 1687.77 C 1375.88 1687.69 1374.26 1687.62 1372.67 1687.41 C 1369.35 1686.99 1367.01 1685.6 1364.99 1682.96 C 1365.28 1680.93 1364.86 1681.41 1366.22 1680.13 C 1368.71 1677.8 1371.16 1676.84 1374.58 1676.91 L 1377.98 1676.95 L 1379.82 1676.98 C 1384.94 1674.51 1387.03 1667.92 1389.18 1663 L 1383.04 1649.58 C 1379.83 1642.65 1363.27 1610.59 1364.64 1604.67 C 1366.67 1602.98 1367.12 1603.04 1369.78 1602.74 C 1375.68 1606.55 1389.87 1645.81 1393.33 1654.9 C 1401.19 1637.79 1407.14 1619.7 1414.68 1602.4 z"/>
<path transform="translate(0,0)" fill="rgb(3,6,11)" d="M 704.114 1580.02 C 706.723 1580.06 709.681 1579.72 711.788 1581.28 C 714.078 1597.9 712.376 1619.22 712.508 1636.45 C 721.248 1626.2 731.217 1611.42 742.68 1604.23 C 744.672 1602.98 745.825 1602.32 748.199 1602.8 L 748.474 1605.12 C 745.413 1612.94 733.247 1624.19 727.354 1631.24 L 741.915 1652.4 C 744.556 1656.17 748.306 1659.04 750.266 1663.26 L 749.517 1665.12 C 747.917 1665.81 746.659 1666.36 744.857 1666.18 C 737.479 1665.42 725.358 1642.61 721.357 1636.68 C 718.071 1639.95 715.266 1643.22 712.561 1646.99 C 712.25 1653.11 714.044 1659.85 710.337 1665.09 C 708.05 1666.27 707.914 1666.65 705.45 1666.09 C 702.014 1660.91 704.071 1591.68 704.114 1580.02 z"/>
<path transform="translate(0,0)" fill="rgb(3,6,11)" d="M 1147.8 1602.18 C 1155.99 1601.82 1164.5 1602.96 1170.7 1608.85 C 1178.61 1616.36 1179.19 1626.03 1179.16 1636.2 L 1130.35 1636.32 C 1132.09 1643.91 1134.4 1651.89 1141.43 1656.25 C 1148.03 1660.34 1155.63 1659.19 1162.77 1657.5 C 1164.64 1656.41 1166.64 1655.09 1168.67 1654.32 C 1170.86 1653.5 1172.09 1654.08 1173.95 1655.2 L 1173.69 1657.33 C 1170.67 1661.24 1167.07 1663.57 1162.35 1665.06 A 31.6206 31.6206 0 0 1 1137.83 1662.73 C 1130.19 1658.55 1124.89 1651.67 1122.84 1643.21 C 1120.62 1634.04 1122.17 1623.6 1127.28 1615.64 C 1132.28 1607.85 1138.98 1604.23 1147.8 1602.18 z"/>
<path transform="translate(0,0)" fill="rgb(254,254,254)" d="M 1148.52 1609.08 C 1151.96 1609.17 1155.45 1609.43 1158.63 1610.88 C 1163.85 1613.25 1168.28 1617.47 1170.38 1622.81 C 1170.2 1625.9 1170.02 1626.22 1168.19 1628.73 C 1164.69 1630.89 1160.23 1630.19 1156.25 1630.1 L 1130.69 1630.02 C 1131.83 1626.28 1132.98 1622.53 1134.8 1619.05 C 1137.9 1613.14 1142.32 1610.89 1148.52 1609.08 z"/>
<path transform="translate(0,0)" fill="rgb(3,6,11)" d="M 1457.5 1601.26 C 1465.63 1601.65 1474.04 1603.48 1479.86 1609.63 C 1487.08 1617.26 1487.14 1626.15 1486.84 1635.95 C 1473.26 1636.74 1459.53 1635.26 1446.03 1636.1 C 1443.21 1636.27 1441.07 1636.14 1439.16 1638.25 C 1439.17 1639.58 1439.18 1640.83 1439.5 1642.13 C 1440.96 1647.94 1443.95 1653.31 1449.43 1656.07 C 1456.95 1659.87 1465.22 1659 1472.96 1656.61 C 1475.81 1654.64 1476.85 1653.3 1480.37 1653.36 L 1481.8 1655.04 L 1481.29 1657.57 C 1478.5 1661.16 1475.71 1663.49 1471.32 1664.93 C 1462.8 1667.73 1451.46 1666.27 1443.7 1661.88 C 1437.31 1658.26 1432.9 1652.45 1430.94 1645.38 C 1428.25 1635.65 1429.84 1624.03 1435.13 1615.43 C 1440.58 1606.55 1447.74 1603.54 1457.5 1601.26 z"/>
<path transform="translate(0,0)" fill="rgb(254,254,254)" d="M 1454.92 1609.19 C 1458.99 1608.96 1463.44 1608.89 1467.17 1610.76 C 1471.45 1612.9 1478.31 1618.34 1479.38 1623.34 C 1479.89 1625.77 1478.79 1626.77 1477.47 1628.57 C 1473.59 1630.47 1467.45 1629.61 1463.15 1629.57 A 1222.41 1222.41 0 0 1 1438.5 1629.32 A 62.0323 62.0323 0 0 1 1440.58 1622.92 C 1443.47 1615.44 1447.73 1612.31 1454.92 1609.19 z"/>
<path transform="translate(0,0)" fill="rgb(3,6,11)" d="M 489.128 1584.04 C 492.452 1583.82 495.147 1583.58 498.343 1584.63 C 501.768 1592.45 503.121 1602.57 505.072 1610.92 A 893.36 893.36 0 0 0 516.192 1654.9 C 519.932 1639.39 529.563 1598.13 536.142 1585.73 C 538.28 1584.07 541.022 1584.41 543.608 1584.34 L 543.296 1585.5 L 544.066 1584.82 C 553.418 1605.73 556.35 1630.43 563.98 1652.07 L 564.632 1653.9 C 569.193 1635.88 575.733 1600.68 582.535 1585.34 C 583.148 1583.96 584.298 1584.02 585.656 1583.52 C 588 1583.95 588.617 1583.99 590.413 1585.5 L 589.893 1588.42 A 4057.94 4057.94 0 0 0 569.909 1665.6 L 558.932 1665.53 C 553.262 1643 546.614 1620.8 539.977 1598.53 C 534.252 1618.56 528.595 1645.13 521.611 1663.68 C 518.127 1665.47 514.494 1665 510.82 1663.98 C 506.754 1655.63 505.046 1644.9 502.644 1635.9 A 2054.49 2054.49 0 0 1 489.128 1584.04 z"/>
<path transform="translate(0,0)" fill="rgb(3,6,11)" d="M 897.704 1602.23 C 903.732 1602.46 909.358 1603.33 914.606 1606.51 C 921.687 1610.79 926.326 1617.73 928.144 1625.75 C 930.189 1634.78 928.775 1645.15 923.72 1652.98 C 918.466 1661.12 911.871 1664.17 902.698 1666.05 C 896.46 1665.76 891.247 1664.99 885.791 1661.76 C 878.363 1657.36 873.477 1650.07 871.682 1641.68 C 869.767 1632.75 871.556 1622.53 876.826 1615.01 C 882.127 1607.44 888.811 1603.93 897.704 1602.23 z"/>
<path transform="translate(0,0)" fill="rgb(254,254,254)" d="M 898.518 1609.14 C 902.064 1609.53 905.761 1610.07 908.855 1611.95 C 914.332 1615.27 918.139 1620.88 919.676 1627.05 C 921.553 1634.59 920.685 1642.87 916.42 1649.46 C 912.66 1655.28 907.952 1657.44 901.38 1658.84 C 897.784 1658.53 894.117 1657.97 890.963 1656.12 C 885.62 1652.99 882.109 1647.52 880.58 1641.6 C 878.63 1634.06 879.653 1625.51 883.846 1618.89 C 887.508 1613.11 892.033 1610.72 898.518 1609.14 z"/>
<path transform="translate(0,0)" fill="rgb(3,6,11)" d="M 618.619 1603.15 C 624.429 1602.81 629.85 1602.82 635.274 1605.22 C 643.109 1608.69 648.664 1615.24 651.373 1623.3 C 654.334 1632.12 653.781 1642.73 649.426 1651 C 644.989 1659.43 638.414 1662.97 629.645 1665.7 C 623.194 1666.15 617.284 1666.11 611.371 1663.14 C 604.164 1659.52 599.153 1653.29 596.662 1645.66 A 35.5929 35.5929 0 0 1 599.102 1617.99 C 603.515 1609.88 610.019 1605.79 618.619 1603.15 z"/>
<path transform="translate(0,0)" fill="rgb(254,254,254)" d="M 617.989 1611.05 C 621.508 1610.86 625.288 1610.49 628.718 1611.45 C 634.335 1613.02 638.989 1617.29 641.59 1622.44 C 644.892 1628.98 645.253 1637.44 642.745 1644.31 C 640.212 1651.24 636.017 1655.04 629.396 1657.95 C 625.934 1658.46 622.764 1658.81 619.31 1658.02 A 19.3227 19.3227 0 0 1 606.896 1648.68 C 603.171 1642.14 602.587 1633.68 604.705 1626.53 C 607.005 1618.76 611.105 1614.92 617.989 1611.05 z"/>
<path transform="translate(0,0)" fill="rgb(3,6,11)" d="M 1319.86 1602.12 C 1326.81 1601.67 1333.02 1601.87 1339.48 1604.88 A 32.2376 32.2376 0 0 1 1356.48 1623.44 A 32.9828 32.9828 0 0 1 1354.52 1649.02 C 1349.71 1658.28 1342.26 1662.38 1332.68 1665.23 C 1324.31 1666.29 1316.8 1666.15 1309.24 1661.92 A 32.0379 32.0379 0 0 1 1294.06 1642.15 C 1291.86 1633.84 1292.87 1624.79 1297.3 1617.37 C 1302.47 1608.69 1310.39 1604.61 1319.86 1602.12 z"/>
<path transform="translate(0,0)" fill="rgb(254,254,254)" d="M 1324.65 1609.29 C 1327.76 1609.69 1330.98 1610.23 1333.89 1611.43 C 1340.11 1614.01 1345 1618.89 1347.4 1625.19 C 1349.8 1631.51 1349.2 1638.71 1346.23 1644.74 C 1342.47 1652.35 1336.79 1655.75 1329.05 1658.45 C 1323.31 1658.3 1318.73 1658.3 1313.72 1655.14 C 1307.81 1651.41 1304.02 1645.47 1302.8 1638.62 C 1301.58 1631.84 1302.86 1624.5 1306.93 1618.88 C 1311.51 1612.54 1317.23 1610.57 1324.65 1609.29 z"/>
<path transform="translate(0,0)" fill="rgb(3,6,11)" d="M 969.589 1602.17 C 972.44 1602.01 975.159 1602.11 977.982 1602.61 C 984.851 1603.82 990.912 1608.14 994.836 1613.84 C 1000.27 1621.72 1001.92 1631.93 999.972 1641.24 C 998.232 1649.53 993.577 1657.57 986.263 1662.11 C 967.294 1673.9 962.641 1659.36 951.724 1657.04 L 951.462 1660.79 C 951.62 1667.47 953.496 1680.55 949.545 1685.75 C 946.607 1685.77 945.251 1686.24 942.844 1684.46 C 941.962 1674.5 942.534 1664.23 942.601 1654.24 A 1761.01 1761.01 0 0 1 943.287 1603.75 C 944.805 1601.48 945.182 1601.77 947.63 1600.87 C 951.344 1604.04 949.39 1608.91 952.084 1612.19 C 957.625 1607.13 962.173 1604.09 969.589 1602.17 z"/>
<path transform="translate(0,0)" fill="rgb(254,254,254)" d="M 970.624 1609.15 C 973.094 1609.4 975.535 1609.69 977.881 1610.54 C 983.535 1612.6 987.896 1617.25 990.103 1622.79 C 992.924 1629.87 992.514 1638.32 989.312 1645.2 C 985.886 1652.56 981.15 1655.84 973.755 1658.67 C 967.098 1658.24 960.703 1657.31 956.001 1652.06 C 949.402 1644.69 950.896 1633.39 951.186 1624.31 C 956.6 1615.79 960.654 1611.89 970.624 1609.15 z"/>
<path transform="translate(0,0)" fill="url(#Gradient2)" d="M 1201.09 1614.67 C 1205.61 1609.43 1209.85 1605.69 1216.45 1603.3 A 27.8047 27.8047 0 0 1 1238.99 1604.85 C 1246.72 1608.93 1252.07 1616.36 1254.26 1624.75 C 1256.61 1633.76 1255.74 1644.69 1250.69 1652.67 C 1245.89 1660.27 1238.78 1663.81 1230.27 1665.73 C 1227.51 1665.78 1224.68 1665.69 1221.94 1665.34 C 1212.46 1664.12 1206.47 1658.53 1201.08 1651.09 C 1201.03 1660.1 1201.25 1669.09 1201.23 1678.09 C 1201.22 1681.67 1201.4 1684.36 1198.8 1686.96 C 1196.04 1687.04 1195.89 1686.84 1193.57 1685.29 C 1190.15 1679.41 1192.6 1613.8 1192.63 1602.28 C 1195.18 1602.18 1197.21 1602.08 1199.67 1602.97 C 1201.87 1606.47 1201.08 1610.57 1201.09 1614.67 z"/>
<path transform="translate(0,0)" fill="rgb(254,254,254)" d="M 1218.13 1610.17 C 1222.43 1609.66 1226.94 1609.37 1231.11 1610.75 C 1236.86 1612.67 1241.49 1617.36 1243.89 1622.86 C 1246.9 1629.76 1247 1638.4 1243.95 1645.31 C 1241.07 1651.84 1236.52 1655.54 1229.95 1658 C 1226.4 1658.13 1222.63 1657.98 1219.23 1656.87 C 1212.62 1654.69 1206.74 1649.91 1203.73 1643.57 A 24.5556 24.5556 0 0 1 1203.15 1624.15 C 1206.11 1616.79 1211.09 1613.21 1218.13 1610.17 z"/>
<path transform="translate(0,0)" fill="rgb(3,6,11)" d="M 1041.76 1583.15 C 1059.08 1582.94 1081.85 1580.28 1096.26 1591.57 C 1104.66 1598.14 1108.84 1608.12 1109.73 1618.54 C 1110.9 1632.17 1106.57 1643.13 1098.13 1653.48 C 1082.05 1668.11 1061.59 1665.52 1041.47 1665.48 L 1041.76 1583.15 z"/>
<path transform="translate(0,0)" fill="rgb(254,254,254)" d="M 1050.39 1591.16 C 1062.99 1591.01 1078.33 1589.62 1089.05 1597.43 C 1095.55 1602.16 1098.93 1609.5 1099.97 1617.34 C 1101.55 1629.28 1098.02 1639.13 1090.99 1648.53 C 1078.48 1658.75 1065.32 1657.36 1050.23 1657.2 L 1050.39 1591.16 z"/>
<path transform="translate(0,0)" fill="rgb(36,55,73)" d="M 778.979 1387.15 L 789.371 1386.83 A 928.49 928.49 0 0 1 788.626 1413.93 C 779.174 1414.21 770.567 1415.47 763.415 1422.25 C 759.209 1426.24 756.58 1431.53 755.32 1437.15 C 751.884 1452.47 754.13 1500.14 754.113 1518.8 C 744.061 1518.84 733.391 1519.62 723.431 1518.37 L 722.452 1516.79 L 722.767 1388.28 L 753.845 1388.27 L 753.83 1404.05 C 761.648 1395.26 767.212 1390.16 778.979 1387.15 z"/>
<path transform="translate(0,0)" fill="rgb(36,55,73)" d="M 1091.17 1350.31 L 1121.86 1350.52 L 1121.67 1463.92 C 1121.6 1482.27 1122.4 1501.06 1120.96 1519.33 L 1090.54 1519.46 C 1090.01 1463.1 1090.88 1406.68 1091.17 1350.31 z"/>
<path transform="translate(0,0)" fill="rgb(36,55,73)" d="M 600.156 1357.3 L 701.996 1357.1 L 701.918 1383.46 C 678.878 1384.4 655.574 1383.87 632.505 1383.95 C 632.307 1397.14 632.51 1410.37 632.521 1423.56 A 2965.33 2965.33 0 0 0 694.068 1423.39 L 694.09 1448.81 A 1906.63 1906.63 0 0 0 632.051 1448.85 L 631.926 1519.99 L 600.125 1520.06 L 600.156 1357.3 z"/>
<path transform="translate(0,0)" fill="rgb(36,55,73)" d="M 998.171 1387.33 A 152.235 152.235 0 0 1 1005.75 1386.95 C 1021.61 1386.64 1037.04 1392.22 1048.37 1403.48 C 1064.77 1419.78 1066.23 1441.04 1066.03 1462.79 L 970.394 1463.15 C 971.41 1466.36 972.408 1469.64 973.812 1472.7 C 977.887 1481.6 985.179 1489.19 994.43 1492.62 C 1012.36 1499.27 1026.37 1490.49 1042.09 1483.56 L 1043.73 1484.36 C 1049.04 1490.22 1054.61 1495.87 1060.07 1501.59 C 1049.01 1511.41 1037.2 1518.01 1022.48 1520.37 C 1002.8 1523.54 981.156 1519.62 965.006 1507.6 C 951.522 1497.56 943.369 1483.26 940.98 1466.64 C 938.237 1447.56 941.573 1427.44 953.357 1411.84 C 964.714 1396.8 979.911 1389.9 998.171 1387.33 z"/>
<path transform="translate(0,0)" fill="rgb(254,254,254)" d="M 1002.04 1411.37 C 1009.63 1411.02 1016.33 1412.39 1022.68 1416.66 C 1028.33 1420.47 1036.64 1429.18 1037.11 1436.39 C 1037.27 1438.91 1036.35 1439.63 1034.81 1441.38 C 1025.97 1443.26 1015.13 1441.89 1006.05 1441.73 C 994.54 1441.6 982.981 1441.95 971.469 1442.11 C 972.895 1435.7 974.361 1429.83 978.205 1424.35 C 984.08 1415.98 992.294 1412.89 1002.04 1411.37 z"/>
<path transform="translate(0,0)" fill="rgb(36,55,73)" d="M 855.694 1387.33 C 859.376 1386.94 863.297 1387.02 866.997 1387.24 C 882.469 1388.14 896.568 1394.33 906.979 1405.96 C 921.627 1422.33 924.922 1441.73 923.617 1462.97 C 891.711 1464.32 859.134 1463.03 827.155 1463.01 C 828.382 1469.45 830.25 1475.39 834.052 1480.82 C 839.345 1488.37 846.703 1492.94 855.82 1494.35 C 872.038 1496.86 886.1 1490.58 898.68 1481.05 L 900.116 1481.51 C 905.224 1487.84 911.134 1493.63 916.718 1499.54 C 906.832 1510.56 893.877 1516.97 879.408 1519.61 C 860.194 1523.11 838.292 1520.07 822.131 1508.61 C 808.121 1498.67 799.144 1482.41 796.571 1465.57 C 793.855 1447.8 797.16 1428.28 808.189 1413.77 C 820.109 1398.1 836.498 1389.96 855.694 1387.33 z"/>
<path transform="translate(0,0)" fill="rgb(254,254,254)" d="M 858.009 1411.26 C 865.742 1410.78 874.27 1411.86 880.72 1416.46 C 889.411 1422.67 891.231 1432.1 892.818 1441.91 L 866.785 1441.91 L 828.488 1441.94 C 829.909 1436.3 831.586 1430.72 834.713 1425.76 C 840.374 1416.78 848.057 1413.39 858.009 1411.26 z"/>
<path transform="translate(0,0)" fill="rgb(36,55,73)" d="M 1366.91 1387.41 C 1382.52 1387.53 1400.02 1390.02 1411.61 1401.49 C 1417.64 1407.47 1421.39 1415.24 1423.4 1423.42 C 1428.25 1443.09 1425.63 1494.87 1425.89 1518.06 L 1398.84 1518.05 L 1398.35 1502.3 C 1395.63 1504.89 1392.88 1507.61 1389.84 1509.83 C 1377.55 1518.82 1362.62 1522.71 1347.48 1520.25 C 1333.12 1517.92 1322.92 1510.41 1314.76 1498.71 A 45.1593 45.1593 0 0 1 1309.96 1475.19 C 1310.6 1465.25 1315.13 1456.54 1322.76 1450.17 C 1341.87 1434.21 1372.59 1436.4 1395.77 1438.09 C 1395.02 1433.72 1394.26 1428.74 1392.14 1424.82 C 1388.82 1418.68 1382.88 1414.58 1376.18 1412.94 C 1358.85 1408.72 1341.24 1415.6 1326.63 1424.36 C 1322.72 1417.14 1318.86 1409.98 1315.54 1402.46 C 1331.79 1392.31 1347.93 1388.63 1366.91 1387.41 z"/>
<path transform="translate(0,0)" fill="rgb(254,254,254)" d="M 1367.73 1457.36 C 1376.42 1456.11 1386.12 1456.98 1394.89 1457.36 C 1395.15 1466.9 1396.02 1477.29 1390.37 1485.6 C 1385.2 1493.19 1376.79 1496 1368.24 1497.82 C 1361.2 1498.15 1354.21 1497.5 1348.19 1493.44 A 18.4972 18.4972 0 0 1 1340.1 1480.75 C 1339.41 1475.92 1340.66 1471.03 1343.75 1467.23 C 1349.8 1459.81 1358.82 1458.46 1367.73 1457.36 z"/>
<path transform="translate(0,0)" fill="rgb(36,55,73)" d="M 1185.36 1407.25 C 1192.9 1399.55 1200.96 1393.14 1211.4 1389.81 C 1226.52 1384.99 1244.5 1387.09 1258.43 1394.44 C 1273.57 1402.45 1284.01 1415.85 1288.83 1432.23 C 1294.34 1450.94 1292.36 1472.52 1282.92 1489.64 C 1274.22 1505.41 1261.46 1514.02 1244.53 1519.03 C 1239.45 1520.02 1234.07 1520.74 1228.87 1520.59 C 1210.63 1520.05 1198.97 1511.28 1186.87 1498.72 L 1185.91 1562.75 C 1175.64 1562.33 1165.38 1562.51 1155.11 1562.6 L 1155.17 1388.25 L 1185.14 1388.08 L 1185.36 1407.25 z"/>
<path transform="translate(0,0)" fill="rgb(254,254,254)" d="M 1216.74 1414.22 C 1225.6 1413.29 1233.85 1413.98 1241.78 1418.39 C 1250.96 1423.51 1257.2 1432.32 1259.89 1442.41 C 1262.87 1453.59 1261.58 1466.18 1255.5 1476.13 C 1249.34 1486.2 1240.3 1491.3 1229.02 1493.77 C 1221.51 1494.29 1214.89 1493.53 1207.96 1490.32 A 39.9698 39.9698 0 0 1 1187.27 1467.35 C 1183.54 1456.72 1184.09 1444.43 1189.33 1434.4 C 1195.27 1423.04 1205 1417.81 1216.74 1414.22 z"/>
<path transform="translate(0,0)" fill="rgb(203,231,241)" d="M 1288.41 424.265 C 1302.67 422.627 1315.19 425.397 1327.37 432.902 C 1342 441.923 1350.59 455.531 1354.54 472.013 C 1368.03 472.661 1379.1 475.235 1388.85 485.467 C 1399.88 497.041 1401.56 509.795 1400.95 524.956 C 1412.42 539.05 1414.34 549.397 1414.47 567.197 A 2005.42 2005.42 0 0 1 1341.5 567.756 A 7608.97 7608.97 0 0 0 1214.15 567.301 A 202.603 202.603 0 0 0 1228.82 505.502 C 1229.27 499.551 1227 473.861 1229.88 470.504 C 1231.97 471.306 1232.8 471.666 1235.08 471.539 C 1238.76 463.289 1242.03 454.698 1247.35 447.332 C 1257.41 433.39 1271.96 426.917 1288.41 424.265 z"/>
<path transform="translate(0,0)" fill="rgb(203,231,241)" d="M 1412.83 784.269 C 1422.55 783.147 1433.16 783.577 1442.38 786.952 C 1459.81 793.331 1468.43 806.558 1475.91 822.531 C 1481.04 820.421 1486.84 818.52 1492.38 818.054 C 1502.23 817.227 1511.69 820.184 1519.02 826.887 C 1529.12 836.133 1531.86 848.723 1532.53 861.781 C 1544.48 864.527 1555.12 870.045 1562.29 880.356 C 1571.37 893.437 1570.64 907.188 1568.19 922.053 L 1531.11 921.968 L 1368 921.114 L 1368.13 863.052 C 1368.1 850.584 1366.93 836.717 1369.01 824.428 C 1370.17 817.586 1372.33 811.122 1376.26 805.344 C 1384.57 793.091 1398.73 786.933 1412.83 784.269 z"/>
<path transform="translate(0,0)" fill="rgb(203,231,241)" d="M 563.892 595.309 C 564.982 595.189 566.072 595.059 567.166 594.983 C 589.57 593.434 610.686 598.102 627.785 613.306 C 647.753 631.06 652.77 652.399 654.192 678.026 C 654.254 678.073 654.316 678.121 654.379 678.167 C 657.787 680.675 661.064 683.027 663.568 686.504 C 670.631 696.31 669.644 702.317 667.945 713.389 C 669.46 716.832 673.35 718.629 676.295 720.769 C 679.902 723.391 683.509 726.117 683.781 731.007 C 683.955 734.146 682.432 738.185 680.283 740.465 C 678.417 742.445 676.648 742.828 674.034 743.16 C 660.535 744.87 645.807 743.578 632.139 743.518 A 4973.21 4973.21 0 0 0 554.5 743.627 A 6477.6 6477.6 0 0 1 477.86 743.51 C 467.499 743.438 456.571 744.295 446.295 743.369 C 442.172 742.998 438.161 741.898 435.705 738.274 C 432.862 734.08 433.067 727.741 434.134 722.969 C 436.604 711.918 445.742 709.904 454.293 704.855 C 455.612 699.203 451.833 690.554 452.006 684.129 C 452.39 669.819 457.874 656.164 468.592 646.457 C 478.273 637.69 492.899 632.026 506 632.674 C 521.074 612.259 538.755 599.512 563.892 595.309 z"/>
<path transform="translate(0,0)" fill="rgb(36,55,73)" d="M 815.691 688.518 C 964.099 686.728 1112.62 688.378 1261.04 688.194 C 1274.57 688.178 1305.38 686.244 1316.75 689.247 C 1323.65 691.072 1329.14 694.355 1334.09 699.485 C 1340.12 705.735 1344.06 712.847 1345.01 721.515 C 1347.05 740.134 1345.39 760.414 1345.32 779.233 L 1345.12 888.707 L 1345.07 1259.97 L 1320.9 1260.03 L 1321.42 921.082 L 1321.76 799.077 C 1321.82 777.316 1322.38 755.401 1321.76 733.659 C 1321.62 728.572 1321.54 722.207 1319.58 717.502 C 1316.03 714.427 1312.54 713.019 1307.91 712.237 C 1292.72 709.676 1250.97 711.641 1233.25 711.701 L 737.79 712.149 C 732.698 715.488 730.207 718.926 727.116 724.182 C 725.18 786.415 726.916 849.177 726.939 911.454 L 727.004 1259.85 L 702.019 1259.87 L 701.982 892.759 L 701.918 781.428 C 701.914 762.976 700.298 743.032 702.699 724.807 C 703.857 716.017 708.179 707.058 714.474 700.798 C 720.016 695.288 727.466 691.739 735.053 690.096 C 751.505 686.534 796.191 688.608 815.691 688.518 z"/>
<path transform="translate(0,0)" fill="rgb(53,108,144)" d="M 1010.42 311.422 A 187.762 187.762 0 0 1 1142.59 354.414 A 175.82 175.82 0 0 1 1206.22 476.512 C 1209.99 520.618 1193.87 566.158 1165.28 599.659 C 1131.96 638.694 1083.6 659.41 1033.07 663.411 C 988.412 667.326 932.525 646.549 898.543 618.086 A 168.438 168.438 0 0 1 837.761 501.902 C 833.848 457.08 850.688 411.513 879.485 377.397 C 912.899 337.812 959.187 315.676 1010.42 311.422 z"/>
<path transform="translate(0,0)" fill="rgb(254,254,254)" d="M 1015.78 331.419 C 1054.89 330.67 1095.3 342.686 1125.95 367.43 C 1158.87 394.004 1181.54 432.131 1185.91 474.47 C 1190.03 514.361 1177.08 553.89 1151.77 584.816 C 1121.36 621.955 1078.97 639.435 1032.15 643.919 C 988.901 644.233 943.844 630.387 910.574 601.99 C 881.355 577.05 861.853 540.198 859.024 501.833 A 153.19 153.19 0 0 1 895.519 389.408 C 926.713 353.412 968.796 334.907 1015.78 331.419 z"/>
<path transform="translate(0,0)" fill="rgb(53,108,144)" d="M 1062.77 365.25 C 1075.18 363.771 1087.67 365.035 1099.1 370.321 C 1115.13 377.736 1127.14 392.038 1133.25 408.45 C 1139.07 424.107 1139.03 441.475 1131.78 456.665 C 1125.54 469.749 1113.79 480.497 1100.04 485.199 C 1083.33 490.914 1066.38 487.905 1050.85 480.492 C 1048.37 491.134 1044.92 497.837 1039.24 507.091 C 1032.77 505.835 1026.73 504.901 1020.83 501.775 C 1016.67 506.893 1013.07 512.468 1009.35 517.907 C 1013.2 521.695 1016.65 525.581 1020.05 529.764 C 1019.86 530.176 1019.68 530.593 1019.48 531 C 1018.04 533.926 1017.06 535.804 1013.94 536.957 C 1009.51 536.006 1004.42 530.465 1000.47 527.865 C 994.976 532.652 990.618 538.17 986.127 543.872 A 1378.9 1378.9 0 0 0 1002.09 559.934 L 996.768 568.505 C 990.658 564.265 984.165 560.605 977.751 556.849 C 977.682 556.869 977.606 556.872 977.545 556.91 C 975.506 558.171 975.526 558.293 974.993 560.557 C 976.417 564.656 979.436 567.571 982.249 570.784 C 971.229 581.869 963.18 594.594 951.271 605.062 A 82.2957 82.2957 0 0 1 941.236 601.246 C 930.433 596.356 925.832 589.219 921.799 578.569 C 934.317 566.57 945.452 552.547 957.097 539.669 C 954.706 537.88 952.785 536.253 950.896 533.932 C 951.152 531.736 951.215 531.305 953.145 530.048 C 956.942 527.576 962.051 527.468 965.911 524.609 C 972.78 519.521 995.703 491.159 1000.59 483.719 C 1001.03 472.717 1006.67 468.521 1014.2 461.23 L 1027.31 460.552 C 1022.11 452.825 1017.89 445.67 1015.86 436.517 A 60.4653 60.4653 0 0 1 1024.19 390.341 C 1033.3 376.609 1046.78 368.561 1062.77 365.25 z"/>
<path transform="translate(0,0)" fill="rgb(254,254,254)" d="M 1097.97 388.063 C 1101.52 387.668 1104.94 387.518 1108.43 388.444 C 1113.42 389.769 1117.91 393.091 1120.25 397.743 A 16.6938 16.6938 0 0 1 1120.94 411.017 C 1118.64 417.31 1114.04 420.522 1108.26 423.355 C 1105.33 423.818 1102.48 424.259 1099.54 423.624 A 18.2368 18.2368 0 0 1 1087.72 415.045 A 18.536 18.536 0 0 1 1086.12 400.094 C 1088.07 393.829 1092.37 390.897 1097.97 388.063 z"/>
<path transform="translate(0,0)" fill="rgb(36,55,73)" d="M 773.516 725.12 L 1271.06 724.973 L 1271.06 739.988 L 1305.63 739.991 C 1306.28 778.784 1305.81 817.722 1305.57 856.523 L 1274.98 856.418 L 1274.94 874.226 L 1305.56 874.258 L 1305.38 987.561 C 1295 987.725 1284.59 987.601 1274.21 987.614 L 1274.14 1006.23 L 1305.35 1006.3 L 1305.17 1117.26 L 1274.81 1117.32 L 1274.7 1136.07 L 1305.21 1136.07 L 1305.15 1252.15 C 1297.38 1252.24 1279.22 1249.39 1273.26 1254 L 1273.17 1257.76 C 1273.17 1260.39 1273.11 1262.9 1272.78 1265.51 C 1270.72 1266.98 1270.07 1266.88 1267.52 1266.97 C 1248.99 1267.68 1230.14 1266.95 1211.57 1266.92 L 1106.14 1266.92 L 770.959 1266.96 C 770.509 1262.51 770.404 1258 770.188 1253.53 L 740.829 1253.36 L 740.563 1136.99 L 769.828 1136.97 L 769.734 1119.96 L 740.924 1119.94 L 740.587 1006.02 L 769.055 1006.05 L 769.099 989.284 L 740.751 989.288 L 740.697 876.23 L 769.156 876.252 L 769.154 858.987 L 740.811 858.989 L 740.724 743.212 L 773.623 743.16 C 773.482 737.152 773.535 731.13 773.516 725.12 z"/>
<path transform="translate(0,0)" fill="rgb(254,254,254)" d="M 799.046 751.917 C 848.552 750.852 898.266 751.844 947.797 751.841 L 1245.84 751.702 L 1245.87 844.994 C 1196 846.57 1145.57 845.201 1095.66 845.23 L 798.962 845.283 L 799.046 751.917 z"/>
<path transform="translate(0,0)" fill="rgb(36,55,73)" d="M 969.771 777.01 C 972.027 777.056 974.138 777.513 976.264 778.254 C 980.204 779.627 983.672 782.545 985.402 786.379 C 987.302 790.59 986.905 795.288 984.979 799.414 C 982.474 804.778 977.936 807.003 972.643 808.96 C 970.021 808.736 967.512 808.475 965.074 807.412 C 961.023 805.645 957.472 802.388 955.918 798.191 A 14.9737 14.9737 0 0 1 956.701 786.053 C 959.497 780.602 964.257 778.815 969.771 777.01 z"/>
<path transform="translate(0,0)" fill="rgb(36,55,73)" d="M 825.857 778.114 C 828.339 777.99 830.861 777.846 833.314 778.334 C 838.013 779.269 842.526 782.294 845.034 786.396 C 847.054 789.698 847.615 793.627 846.464 797.338 C 844.703 803.021 840.231 805.821 835.222 808.399 C 832.629 808.705 830.137 808.979 827.57 808.329 A 17.3377 17.3377 0 0 1 816.34 799.541 A 15.2329 15.2329 0 0 1 815.668 787.029 C 817.638 782.095 821.244 780.233 825.857 778.114 z"/>
<path transform="translate(0,0)" fill="rgb(36,55,73)" d="M 919.052 778.185 C 922.19 777.97 925.417 777.657 928.482 778.546 C 932.805 779.8 936.723 782.843 938.776 786.874 A 13.7189 13.7189 0 0 1 939.509 797.775 C 937.478 803.516 933.373 805.996 928.126 808.492 C 925.526 808.9 923.211 809.172 920.606 808.601 C 916.288 807.656 912.233 804.629 910.13 800.738 C 908.053 796.895 907.712 792.062 909.074 787.927 C 910.793 782.708 914.409 780.619 919.052 778.185 z"/>
<path transform="translate(0,0)" fill="rgb(36,55,73)" d="M 873.02 778.073 C 876.228 777.891 879.234 777.808 882.346 778.749 C 886.62 780.04 890.519 783.22 892.549 787.217 C 894.217 790.502 894.547 794.485 893.213 797.938 C 891.121 803.353 887.116 805.713 882.033 807.941 C 878.929 808.141 875.519 808.427 872.463 807.693 C 868.665 806.781 865.1 803.973 863.07 800.674 C 861.003 797.314 860.546 793.336 861.733 789.579 C 863.597 783.681 867.765 780.783 873.02 778.073 z"/>
<path transform="translate(0,0)" fill="rgb(36,55,73)" d="M 1205.97 770.325 C 1212.6 770.634 1218.32 771.544 1224.01 775.188 C 1231.32 779.874 1235.92 787.478 1237.36 795.981 C 1238.77 804.363 1237.03 813.517 1231.83 820.348 C 1225.93 828.088 1218.6 830.606 1209.36 831.794 C 1201.83 831.353 1195.29 830.101 1189.06 825.58 A 30.1148 30.1148 0 0 1 1176.97 805.522 A 31.1416 31.1416 0 0 1 1183.25 781.637 C 1189.24 774.096 1196.73 771.423 1205.97 770.325 z"/>
<path transform="translate(0,0)" fill="rgb(254,254,254)" d="M 1204.14 787.939 C 1204.69 787.981 1205.24 788.01 1205.78 788.064 C 1210.39 788.525 1214.32 789.824 1217.1 793.735 C 1219.12 796.572 1219.81 800.046 1219.18 803.456 C 1218.14 809.095 1215.05 811.814 1210.45 814.829 C 1208.61 814.696 1206.75 814.542 1204.96 814.082 C 1201 813.069 1197.79 810.081 1195.89 806.536 C 1194.32 803.608 1194.08 800.057 1195.09 796.902 C 1196.65 792.044 1199.8 790.148 1204.14 787.939 z"/>
<path transform="translate(0,0)" fill="rgb(254,254,254)" d="M 798.667 1147.74 C 850.151 1147.14 901.718 1147.78 953.209 1147.8 L 1245.82 1147.91 C 1245.55 1179.38 1245.92 1210.88 1245.99 1242.36 L 798.018 1242.27 A 8680.51 8680.51 0 0 1 798.667 1147.74 z"/>
<path transform="translate(0,0)" fill="rgb(36,55,73)" d="M 874.055 1175.08 C 876.806 1175 879.679 1174.82 882.353 1175.59 C 886.492 1176.77 890.139 1179.71 892.076 1183.56 C 894.069 1187.54 894.149 1191.94 892.514 1196.06 C 890.285 1201.66 886.342 1204.07 881.056 1206.43 C 878.964 1206.68 877.271 1206.75 875.2 1206.26 C 870.688 1205.19 866.761 1202.4 864.522 1198.3 A 16.8254 16.8254 0 0 1 863.376 1185.12 C 865.218 1179.54 868.969 1177.4 874.055 1175.08 z"/>
<path transform="translate(0,0)" fill="rgb(36,55,73)" d="M 965.912 1175 C 968.569 1174.82 971.298 1174.59 973.925 1175.14 A 15.9723 15.9723 0 0 1 984.333 1182.67 C 986.604 1186.6 986.95 1191.09 985.525 1195.39 C 983.578 1201.26 979.78 1203.93 974.478 1206.61 C 972.612 1206.83 970.943 1206.81 969.094 1206.5 C 964.595 1205.75 960.557 1203.44 957.985 1199.61 A 16.3448 16.3448 0 0 1 955.716 1186.66 C 957.192 1180.64 960.812 1178.03 965.912 1175 z"/>
<path transform="translate(0,0)" fill="rgb(36,55,73)" d="M 825.941 1175 C 829.072 1174.69 832.298 1174.25 835.366 1175.17 C 839.611 1176.45 843.438 1179.5 845.483 1183.45 A 14.4779 14.4779 0 0 1 846.282 1194.95 C 844.426 1200.32 840.407 1202.94 835.496 1205.25 C 833.462 1205.62 831.638 1205.82 829.566 1205.65 C 825.111 1205.28 820.779 1203.28 818.029 1199.66 C 815.329 1196.11 814.748 1191.55 815.687 1187.26 C 816.993 1181.31 821.09 1178.16 825.941 1175 z"/>
<path transform="translate(0,0)" fill="rgb(36,55,73)" d="M 919.035 1175.05 C 921.831 1174.7 924.472 1174.46 927.276 1174.92 C 931.689 1175.65 935.828 1178.49 938.206 1182.26 A 14.5493 14.5493 0 0 1 940.061 1193.43 C 938.711 1199.26 935.109 1202.36 930.259 1205.44 C 927.044 1206.08 923.988 1206.67 920.724 1206 C 916.831 1205.19 913.286 1202.95 911.108 1199.6 C 908.718 1195.92 908.223 1191.31 909.194 1187.09 C 910.547 1181.19 914.154 1178.19 919.035 1175.05 z"/>
<path transform="translate(0,0)" fill="rgb(36,55,73)" d="M 1199.21 1165.25 C 1205.57 1164.37 1211.52 1164.34 1217.61 1166.64 A 29.6261 29.6261 0 0 1 1234.58 1182.55 A 31.9755 31.9755 0 0 1 1235.02 1207.45 C 1230.92 1217.55 1223.18 1222.6 1213.61 1226.68 C 1207.49 1227.3 1201.84 1226.96 1196.04 1224.72 A 31.5605 31.5605 0 0 1 1178.07 1207.4 A 30.2995 30.2995 0 0 1 1178 1184.11 C 1182.11 1174.32 1189.85 1169.26 1199.21 1165.25 z"/>
<path transform="translate(0,0)" fill="rgb(254,254,254)" d="M 1204.27 1182.99 C 1206.56 1182.99 1208.72 1183.18 1210.94 1183.8 A 11.5313 11.5313 0 0 1 1217.99 1189.51 C 1219.61 1192.55 1219.95 1195.8 1218.98 1199.09 C 1217.48 1204.2 1214.84 1206.24 1210.24 1208.59 C 1208 1208.49 1205.5 1208.5 1203.34 1207.83 C 1199.5 1206.64 1196.04 1202.87 1194.52 1199.23 A 11.0381 11.0381 0 0 1 1195.15 1189.37 C 1197.3 1185.62 1200.43 1184.37 1204.27 1182.99 z"/>
<path transform="translate(0,0)" fill="rgb(254,254,254)" d="M 798.274 1014.36 C 855.043 1013.51 911.922 1014.35 968.703 1014.4 L 1246.26 1014.06 L 1246.47 1108.92 L 798.09 1108.69 L 798.274 1014.36 z"/>
<path transform="translate(0,0)" fill="rgb(36,55,73)" d="M 875.513 1043.16 C 878.848 1043.4 881.899 1043.81 884.933 1045.33 A 15.2379 15.2379 0 0 1 892.656 1054.28 A 14.264 14.264 0 0 1 891.591 1065.29 C 888.914 1070.28 884.727 1072.4 879.529 1073.99 C 876.855 1073.87 874.094 1073.82 871.574 1072.83 C 867.565 1071.24 864.324 1067.86 862.786 1063.84 A 15.1764 15.1764 0 0 1 863.501 1051.44 C 866.102 1046.32 870.277 1044.67 875.513 1043.16 z"/>
<path transform="translate(0,0)" fill="rgb(36,55,73)" d="M 919.009 1043.08 C 921.881 1042.87 924.807 1042.67 927.651 1043.25 C 931.969 1044.13 936.124 1047.09 938.374 1050.88 A 14.0809 14.0809 0 0 1 939.753 1061.88 C 938.157 1067.59 934.251 1070.71 929.398 1073.68 C 927.193 1073.99 925.21 1074.15 922.988 1073.87 C 918.326 1073.27 914.002 1070.95 911.299 1067.03 C 908.803 1063.42 908.137 1058.83 909.164 1054.59 C 910.537 1048.92 914.228 1045.96 919.009 1043.08 z"/>
<path transform="translate(0,0)" fill="rgb(36,55,73)" d="M 966.021 1043.01 C 968.411 1042.86 970.932 1042.64 973.309 1042.99 C 977.65 1043.63 981.705 1046.38 984.134 1050 A 14.9897 14.9897 0 0 1 986.22 1062.29 C 984.604 1068.48 980.542 1071.48 975.18 1074.4 C 973.151 1074.68 971.386 1074.86 969.355 1074.46 C 964.865 1073.6 960.485 1070.95 957.99 1067.07 C 955.681 1063.47 955.052 1058.72 956.044 1054.59 C 957.454 1048.73 961.146 1046.06 966.021 1043.01 z"/>
<path transform="translate(0,0)" fill="rgb(36,55,73)" d="M 824.928 1043.13 C 828.036 1042.9 831.381 1042.5 834.447 1043.23 C 838.668 1044.24 842.489 1047.47 844.647 1051.18 C 846.699 1054.69 847.173 1058.5 846.023 1062.42 C 844.452 1067.76 840.513 1070.82 835.738 1073.2 C 833.073 1073.61 830.303 1074.12 827.614 1073.67 C 823.285 1072.95 819.396 1070.29 817.017 1066.63 A 15.6606 15.6606 0 0 1 815.089 1054.02 C 816.677 1048.29 819.917 1045.89 824.928 1043.13 z"/>
<path transform="translate(0,0)" fill="rgb(36,55,73)" d="M 1201.77 1031.12 C 1208.94 1030.7 1215.5 1031.39 1221.9 1034.89 A 29.0356 29.0356 0 0 1 1236.08 1052.95 A 31.5971 31.5971 0 0 1 1232.59 1077.28 C 1227.6 1085.48 1220.28 1089.53 1211.25 1091.95 C 1204.05 1092.32 1197.48 1091.72 1191.06 1088.16 A 28.8239 28.8239 0 0 1 1177.08 1070.07 C 1174.96 1061.9 1176.01 1052.75 1180.47 1045.52 C 1185.51 1037.34 1192.72 1033.49 1201.77 1031.12 z"/>
<path transform="translate(0,0)" fill="rgb(254,254,254)" d="M 1202.01 1049.09 A 40.6142 40.6142 0 0 1 1206.46 1048.99 C 1210.51 1049.14 1213.96 1050.79 1216.54 1053.97 C 1218.59 1056.5 1219.32 1059.82 1218.76 1063 C 1217.86 1068.15 1214.7 1071.02 1210.62 1073.9 C 1208.47 1074.15 1206.31 1074.27 1204.16 1073.94 C 1200.98 1073.46 1197.57 1071.24 1195.83 1068.51 C 1194.05 1065.71 1193.51 1062.64 1194.09 1059.4 C 1195.02 1054.24 1197.99 1051.99 1202.01 1049.09 z"/>
<path transform="translate(0,0)" fill="rgb(254,254,254)" d="M 798.46 882.398 C 842.135 881.483 885.971 882.556 929.671 882.371 L 1246.05 881.854 C 1246.03 913.656 1246.39 945.51 1245.79 977.305 C 1096.66 976.912 947.467 979.144 798.343 977.487 C 796.869 945.999 798.227 913.924 798.46 882.398 z"/>
<path transform="translate(0,0)" fill="rgb(36,55,73)" d="M 828.182 911.087 C 830.767 911.004 833.525 911.271 835.99 912.108 A 15.3224 15.3224 0 0 1 844.79 919.913 C 846.607 923.723 846.611 928.032 845.205 931.976 C 843.142 937.759 839.281 940.19 833.905 942.593 C 830.895 942.524 827.898 942.467 825.049 941.378 C 821.097 939.867 817.604 936.349 816.028 932.429 C 814.565 928.791 814.742 924.699 816.251 921.111 C 818.565 915.611 822.959 913.348 828.182 911.087 z"/>
<path transform="translate(0,0)" fill="rgb(36,55,73)" d="M 876.496 911.129 C 879.053 911.283 881.401 911.586 883.827 912.47 A 14.9756 14.9756 0 0 1 892.286 920.244 C 894.146 924.336 893.934 928.838 892.13 932.916 C 889.621 938.588 885.509 940.499 880.005 942.684 C 877.005 942.62 873.652 942.468 870.909 941.139 C 866.987 939.24 863.946 935.516 862.684 931.364 C 861.389 927.102 862.089 922.528 864.289 918.693 C 867.062 913.858 871.354 912.374 876.496 911.129 z"/>
<path transform="translate(0,0)" fill="rgb(36,55,73)" d="M 968.221 912.012 C 970.791 912.092 973.347 912.177 975.811 912.983 A 16.2545 16.2545 0 0 1 985.616 921.591 A 14.5217 14.5217 0 0 1 985.667 933.72 C 983.265 938.942 979.603 941.143 974.462 943.215 C 971.621 943.203 968.835 943.152 966.132 942.172 C 961.823 940.611 958.018 937.38 956.109 933.186 A 13.6628 13.6628 0 0 1 955.897 922.128 C 958.247 916.473 962.849 914.211 968.221 912.012 z"/>
<path transform="translate(0,0)" fill="rgb(36,55,73)" d="M 919.066 912.109 C 922.359 911.856 925.787 911.438 928.983 912.494 C 933.185 913.883 936.817 916.809 938.778 920.798 C 940.523 924.347 940.667 928.218 939.316 931.93 C 937.344 937.35 933.178 939.81 928.247 942.23 C 925.633 942.751 922.961 943.025 920.323 942.472 C 916.359 941.642 912.606 939.08 910.47 935.635 C 908.064 931.755 907.67 926.885 908.961 922.549 C 910.603 917.038 914.264 914.771 919.066 912.109 z"/>
<path transform="translate(0,0)" fill="rgb(36,55,73)" d="M 1204.08 902.219 C 1210.07 901.974 1215.72 902.83 1221.14 905.497 A 29.2632 29.2632 0 0 1 1236.01 922.936 C 1238.64 931.124 1237.84 940.459 1233.59 947.97 C 1228.53 956.935 1220.67 961.038 1211.01 963.485 C 1203.67 963.6 1197.36 962.853 1190.93 959.041 A 30.1962 30.1962 0 0 1 1176.8 939.043 A 30.9361 30.9361 0 0 1 1182.04 914.578 C 1187.6 906.934 1195.05 903.811 1204.08 902.219 z"/>
<path transform="translate(0,0)" fill="rgb(254,254,254)" d="M 1201.88 920.049 C 1203.84 919.839 1205.88 919.708 1207.85 919.911 C 1211.13 920.25 1214.36 922.238 1216.4 924.794 C 1218.49 927.406 1219.18 930.804 1218.69 934.08 C 1217.93 939.219 1214.97 941.815 1211.11 944.937 C 1209.67 944.983 1208.24 945.036 1206.81 944.988 C 1202.61 944.847 1199.16 943.313 1196.45 940.032 C 1194.34 937.478 1193.58 934.195 1194.09 930.946 C 1194.9 925.749 1197.91 923.127 1201.88 920.049 z"/>
</svg>